<svg xmlns="http://www.w3.org/2000/svg" xmlns:xlink="http://www.w3.org/1999/xlink" style="isolation:isolate" viewBox="313.999 341.378 1920 424.554" width="1920pt" height="424.554pt">
	<path d=" M 641.681 489.066 L 533.784 426.761 L 403.695 351.649 C 398.463 348.583 392.909 346.138 387.12 344.337 C 381.245 342.515 375.134 341.55 368.98 341.507 C 361.046 341.421 353.177 343.115 345.972 346.439 C 338.661 349.891 332.25 354.994 327.253 361.341 C 322.536 367.388 319.041 374.271 316.94 381.647 C 314.924 388.744 313.938 396.099 314.002 403.475 L 314.002 403.475 C 314.002 403.56 314.002 403.625 314.002 403.689 L 314.002 403.325 L 314.002 403.325 L 314.002 403.475 L 314.002 553.655 L 314.002 703.814 C 313.938 711.212 314.924 718.567 316.94 725.664 C 319.041 733.019 322.536 739.923 327.253 745.948 C 332.25 752.317 338.661 757.42 345.972 760.851 C 353.177 764.196 361.046 765.889 368.98 765.804 C 375.134 765.739 381.245 764.796 387.12 762.952 C 392.909 761.172 398.463 758.706 403.695 755.662 L 533.784 680.55 L 641.681 618.244 L 641.681 735.913 C 641.681 743.868 644.833 751.502 650.472 757.141 C 656.09 762.759 663.745 765.932 671.7 765.932 C 679.655 765.932 687.288 762.759 692.927 757.141 C 698.545 751.502 701.719 743.868 701.719 735.913 L 701.719 371.397 C 701.719 363.442 698.545 355.787 692.927 350.17 C 687.288 344.53 679.655 341.378 671.7 341.378 C 663.745 341.378 656.09 344.53 650.472 350.17 C 644.833 355.787 641.681 363.442 641.681 371.397 L 641.681 489.066 Z  M 374.04 403.861 L 503.765 478.758 L 633.49 553.655 L 503.765 628.553 L 374.04 703.45 L 374.04 553.655 L 374.04 403.861 L 374.04 403.861 Z " fill-rule="evenodd" fill="#53787b"/>
	<path d=" M 863.828 458.102 L 932.247 458.102 C 940.404 458.102 944.399 454.106 944.399 445.949 C 944.399 437.959 940.404 433.964 932.247 433.964 L 771.437 433.964 C 763.28 433.964 759.285 437.959 759.285 445.949 C 759.285 454.106 763.28 458.102 771.437 458.102 L 839.69 458.102 L 863.828 458.102 Z " fill="#f87060"/>
	<path d=" M 1097.551 502.549 C 1094.555 502.549 1091.725 503.714 1088.895 506.378 C 1086.398 508.875 1085.232 511.705 1085.232 514.868 L 1085.232 603.097 C 1085.232 615.416 1080.738 625.903 1071.915 634.56 C 1067.087 639.054 1062.093 642.384 1056.766 644.548 C 1051.439 646.712 1045.613 647.877 1039.287 647.877 C 1026.802 647.877 1015.981 643.382 1006.825 634.56 C 997.669 625.737 993.175 615.249 993.175 603.097 L 993.175 514.868 C 993.175 513.536 993.008 512.204 992.675 510.873 C 992.342 509.541 991.676 508.376 990.844 507.21 C 990.844 507.044 990.678 506.711 990.511 506.211 C 988.181 503.548 985.184 502.216 981.355 502.216 C 978.026 502.216 975.029 503.548 972.532 506.045 C 970.035 508.376 968.87 511.206 968.87 514.535 L 968.87 603.929 C 968.87 613.418 970.868 622.241 974.364 630.231 C 977.859 638.222 983.02 645.547 989.845 652.205 C 1003.662 665.523 1020.143 672.182 1039.453 672.182 C 1058.764 672.182 1075.244 665.19 1089.228 651.706 C 1102.878 638.388 1110.036 622.241 1110.036 602.764 L 1110.036 514.535 C 1110.036 511.372 1108.705 508.709 1106.54 506.045 C 1104.376 503.548 1101.546 502.216 1097.718 502.216 L 1097.551 502.549 Z " fill="#f87060"/>
	<path d=" M 1209.252 502.882 C 1190.441 502.882 1174.294 509.541 1160.81 523.025 C 1147.159 536.509 1140.167 552.49 1140.167 571.135 L 1140.167 660.362 C 1140.167 664.191 1141.333 667.021 1143.663 668.852 C 1144.828 670.351 1146.16 671.349 1147.492 671.849 C 1148.824 672.348 1150.322 672.515 1151.987 672.515 C 1155.649 672.515 1158.645 671.349 1160.976 668.852 C 1163.307 666.855 1164.472 664.025 1164.472 660.362 L 1164.472 572.133 C 1164.472 559.648 1168.8 548.994 1177.457 540.338 C 1186.279 531.681 1196.767 527.353 1208.919 527.353 C 1221.072 527.353 1231.559 531.681 1240.382 540.338 C 1249.205 548.994 1253.533 559.648 1253.533 572.133 L 1253.533 660.362 C 1253.533 663.359 1254.698 666.189 1256.863 668.686 C 1259.027 671.183 1262.023 672.515 1265.852 672.515 C 1269.681 672.515 1272.677 671.349 1274.841 668.852 C 1276.173 667.687 1277.005 666.522 1277.505 665.19 C 1278.004 663.858 1278.171 662.193 1278.171 660.362 L 1278.171 572.133 C 1278.171 553.156 1271.345 536.842 1257.861 523.358 C 1244.211 509.707 1227.897 502.882 1208.919 502.882 L 1209.252 502.882 Z " fill="#f87060"/>
	<path d=" M 1482.262 585.95 L 1482.262 585.617 C 1482.262 573.798 1479.765 562.978 1475.437 553.156 C 1471.109 543.334 1464.95 534.178 1456.793 526.188 C 1440.312 510.04 1420.502 502.216 1397.363 502.216 C 1374.557 502.216 1354.58 510.04 1338.1 526.188 C 1321.453 542.335 1312.297 562.145 1312.297 584.952 L 1312.297 587.449 C 1312.297 610.421 1320.287 630.564 1337.101 647.544 C 1353.914 664.524 1374.224 672.515 1397.363 672.515 C 1411.18 672.515 1424.331 669.185 1436.816 662.693 C 1442.809 659.53 1448.469 655.701 1453.63 651.207 C 1458.79 646.712 1463.285 641.718 1467.114 636.224 C 1468.612 634.06 1469.444 631.73 1469.444 629.233 C 1469.444 628.733 1469.444 628.234 1469.444 627.901 C 1469.444 627.568 1469.278 627.235 1469.111 626.735 C 1468.445 623.24 1466.614 620.576 1463.618 618.745 C 1461.454 617.413 1459.123 616.747 1456.793 616.747 L 1454.961 616.747 C 1451.133 617.58 1448.303 619.244 1446.471 621.741 C 1443.641 625.903 1440.312 629.565 1436.65 632.728 C 1432.987 635.891 1428.992 638.555 1424.83 640.719 L 1424.997 640.719 C 1420.502 642.883 1416.007 644.548 1411.513 645.713 C 1407.018 646.878 1402.19 647.544 1397.03 647.544 C 1380.716 647.544 1367.065 641.718 1355.413 630.564 C 1350.585 625.737 1346.423 620.909 1343.593 615.416 C 1340.763 609.922 1338.766 604.096 1337.767 597.77 L 1469.777 597.77 C 1475.937 597.77 1479.932 594.773 1481.596 588.78 L 1481.43 588.947 C 1481.763 588.115 1481.929 587.449 1481.929 586.949 C 1481.929 586.45 1481.929 585.95 1481.929 585.451 L 1482.262 585.95 Z  M 1455.627 573.965 L 1338.266 573.965 C 1341.096 562.145 1347.089 551.991 1356.245 543.501 L 1356.245 543.667 C 1368.231 533.013 1381.715 527.686 1396.863 527.686 C 1404.521 527.686 1411.846 529.018 1418.837 531.681 C 1425.829 534.345 1432.321 538.007 1437.815 543.168 C 1442.143 547.163 1445.639 551.991 1448.802 557.151 C 1451.965 562.312 1454.295 567.805 1455.794 573.632 L 1455.627 573.965 Z " fill-rule="evenodd" fill="#f87060"/>
	<path d=" M 1903.724 660.529 L 1903.724 587.615 C 1903.724 564.476 1895.567 544.499 1878.92 527.686 C 1862.439 510.873 1842.13 502.716 1818.658 502.716 C 1795.185 502.716 1775.209 510.873 1758.562 527.686 C 1741.915 544.499 1733.758 564.476 1733.758 587.615 C 1733.758 610.754 1741.915 630.731 1758.562 647.544 C 1775.209 664.191 1795.185 672.515 1818.658 672.515 C 1826.815 672.515 1834.472 671.516 1841.797 669.352 C 1849.122 667.188 1856.113 664.025 1862.772 659.863 C 1865.103 658.365 1867.766 656.534 1870.763 654.203 C 1873.759 651.872 1876.423 649.542 1878.753 647.378 L 1878.753 660.196 C 1878.753 663.692 1879.918 666.688 1882.083 669.185 C 1884.58 671.349 1887.576 672.515 1891.238 672.515 C 1894.568 672.515 1897.398 671.349 1899.895 668.852 C 1902.225 666.522 1903.391 663.692 1903.391 660.196 L 1903.724 660.529 Z  M 1818.658 647.877 C 1802.011 647.877 1787.861 642.051 1776.041 630.231 C 1764.056 618.079 1758.396 603.929 1758.396 587.615 C 1758.396 571.468 1764.056 556.985 1776.041 544.832 C 1787.694 533.013 1802.011 527.353 1818.658 527.353 C 1835.471 527.353 1849.787 533.18 1861.44 544.832 C 1873.26 556.985 1879.086 571.301 1879.086 587.782 C 1879.086 604.262 1873.26 618.412 1861.44 630.231 C 1849.787 642.051 1835.471 647.877 1818.658 647.877 Z " fill-rule="evenodd" fill="#f87060"/>
	<path d=" M 2062.536 601.099 L 2062.702 601.099 C 2061.037 598.269 2058.873 595.439 2056.21 592.776 C 2053.546 590.112 2050.55 587.449 2047.054 584.952 C 2041.893 581.456 2035.401 578.792 2027.577 576.961 C 2019.753 575.13 2010.597 574.131 2000.276 574.131 C 1992.951 574.131 1986.459 573.465 1980.966 572.3 C 1975.472 571.135 1971.144 569.47 1967.981 567.472 C 1963.653 564.476 1960.823 561.646 1959.491 559.149 L 1959.491 559.482 C 1958.992 558.15 1958.825 555.32 1958.825 550.992 L 1958.825 548.994 C 1958.992 547.163 1960.157 544.832 1962.321 542.002 L 1962.321 542.169 C 1966.316 537.508 1971.477 533.845 1977.969 531.182 C 1984.461 528.518 1992.285 527.187 2001.441 527.187 C 2013.926 527.187 2024.913 531.182 2034.402 539.172 C 2034.569 539.339 2034.735 539.505 2034.902 539.505 C 2037.066 541.004 2039.729 542.002 2042.726 541.836 C 2045.056 541.836 2046.887 541.17 2048.219 540.504 C 2049.551 539.838 2050.716 538.84 2051.882 537.341 C 2052.88 536.176 2053.546 535.011 2053.879 533.679 C 2054.212 532.347 2054.379 530.849 2054.379 529.184 C 2054.212 526.687 2053.713 524.856 2052.88 523.691 C 2052.048 522.525 2050.883 521.36 2049.385 520.195 C 2042.559 514.868 2035.068 510.706 2026.745 507.71 C 2018.421 504.713 2009.765 503.215 2000.775 503.215 C 1987.458 503.215 1975.805 505.379 1965.983 509.541 C 1956.162 513.703 1948.005 519.862 1941.679 528.019 C 1939.182 531.348 1937.184 534.678 1935.686 538.174 C 1934.188 541.67 1933.355 544.999 1933.189 548.162 L 1933.022 552.49 C 1932.689 559.981 1934.021 565.974 1936.185 570.469 C 1937.683 573.465 1939.848 576.462 1942.678 579.458 C 1945.507 582.455 1948.837 585.451 1952.666 588.281 C 1957.66 591.943 1963.986 594.773 1971.81 596.771 C 1979.634 598.769 1988.79 599.767 1999.277 599.767 C 2006.935 599.767 2013.427 600.267 2018.921 601.432 C 2024.414 602.597 2028.909 603.929 2031.905 606.093 C 2036.067 608.923 2038.73 611.92 2040.229 614.417 C 2040.728 615.249 2041.061 616.248 2041.228 617.413 C 2041.394 618.578 2041.394 619.91 2041.394 621.408 C 2041.394 621.908 2041.394 622.574 2041.394 623.406 C 2041.394 624.238 2041.228 625.071 2041.061 625.903 L 2041.061 626.902 C 2040.728 628.733 2039.563 631.064 2037.399 633.894 C 2033.57 638.555 2028.243 642.217 2021.584 644.881 C 2014.925 647.544 2007.101 648.876 1998.112 648.876 C 1993.451 648.876 1988.956 648.377 1984.794 647.211 C 1980.633 646.046 1976.471 644.381 1972.476 642.217 C 1968.647 640.053 1965.317 637.556 1962.487 634.56 C 1959.657 631.563 1957.16 628.4 1954.996 624.904 C 1954.164 623.573 1953.165 622.407 1952 621.408 C 1950.835 620.41 1949.503 619.577 1948.005 619.078 L 1948.005 619.244 C 1946.839 618.745 1945.507 618.412 1944.009 618.412 C 1942.012 618.412 1940.014 619.078 1938.016 620.41 L 1938.183 620.243 C 1936.518 621.076 1935.186 622.074 1934.354 623.24 C 1933.522 624.405 1932.856 625.737 1932.356 627.235 C 1932.023 628.067 1931.857 628.733 1931.857 629.233 C 1931.857 629.732 1931.857 630.398 1931.857 631.064 C 1931.857 633.228 1932.523 635.392 1933.855 637.39 L 1933.688 637.39 C 1936.685 642.883 1940.513 647.877 1945.175 652.372 C 1949.836 656.866 1954.996 660.695 1960.656 663.858 C 1972.143 670.351 1984.794 673.347 1998.611 673.347 C 2012.095 673.347 2023.748 671.349 2033.57 667.188 C 2043.392 663.026 2051.549 656.866 2057.874 648.709 C 2060.372 645.547 2062.369 642.217 2063.867 638.721 C 2065.366 635.225 2066.198 631.896 2066.531 628.567 C 2066.697 627.568 2066.697 626.403 2066.697 625.237 L 2066.697 621.908 C 2066.697 613.917 2065.366 607.425 2062.536 602.264 L 2062.536 601.099 Z " fill="#f87060"/>
	<path d=" M 2164.249 500.884 C 2158.256 500.884 2152.263 501.717 2146.27 503.381 C 2140.277 505.046 2134.617 507.377 2129.29 510.373 C 2127.792 511.206 2126.127 512.371 2124.296 513.703 C 2122.465 515.034 2120.634 516.366 2118.802 517.864 L 2118.802 447.947 C 2118.802 444.784 2117.804 441.954 2115.639 439.457 C 2113.475 436.96 2110.479 435.795 2106.65 435.795 C 2104.985 435.795 2103.321 435.961 2101.822 436.461 C 2100.324 436.96 2098.992 437.792 2097.827 439.124 L 2098.16 438.958 C 2096.662 440.123 2095.663 441.455 2095.164 442.953 C 2094.664 444.451 2094.331 446.116 2094.331 447.947 L 2094.331 660.362 C 2094.331 662.027 2094.664 663.692 2095.33 665.19 C 2095.996 666.688 2096.828 668.02 2097.994 669.019 C 2099.159 670.351 2100.491 671.349 2101.989 671.849 C 2103.487 672.348 2104.985 672.515 2106.484 672.515 C 2110.312 672.515 2113.309 671.349 2115.473 668.852 C 2117.637 666.522 2118.636 663.692 2118.636 660.362 L 2118.636 571.135 C 2118.636 558.483 2123.297 547.995 2132.12 539.172 C 2140.943 530.516 2151.43 525.855 2164.082 525.855 C 2176.567 525.855 2187.221 530.35 2196.044 539.172 C 2204.867 547.995 2209.362 558.649 2209.362 571.135 L 2209.362 660.362 C 2209.362 663.858 2210.527 666.688 2212.858 669.019 C 2215.355 671.516 2218.185 672.515 2221.514 672.515 C 2225.01 672.515 2228.006 671.516 2230.337 669.019 C 2232.834 666.855 2233.999 664.025 2233.999 660.362 L 2233.999 571.135 C 2233.999 551.824 2226.841 535.677 2213.191 522.026 C 2199.54 508.209 2183.393 501.051 2164.249 501.051 L 2164.249 500.884 Z " fill="#f87060"/>
	<path d=" M 1628.414 556.001 L 1619.267 569.47 L 1619.433 569.303 C 1617.269 572.799 1613.773 574.464 1609.112 574.464 C 1607.281 574.464 1605.45 574.131 1603.785 573.299 C 1602.12 572.466 1600.622 571.135 1599.457 569.303 L 1599.457 569.47 L 1590.135 555.986 L 1581.312 543.334 L 1571.324 529.018 L 1561.835 515.367 L 1551.847 501.051 L 1540.527 484.57 L 1540.527 660.695 C 1540.527 668.686 1536.531 672.515 1528.541 672.515 C 1520.384 672.515 1516.389 668.686 1516.389 660.695 L 1516.389 445.783 C 1516.389 439.957 1519.052 436.128 1524.546 434.297 C 1525.378 433.797 1526.71 433.464 1528.707 433.464 C 1532.869 433.464 1536.032 435.295 1538.196 439.124 L 1538.196 438.958 L 1556.841 465.593 L 1574.487 490.73 L 1591.466 515.201 L 1609.368 540.728 L 1644.961 488.992 C 1649.49 482.409 1654.951 481.519 1661.534 486.048 C 1668.255 490.671 1669.376 496.09 1664.847 502.673 L 1628.414 556.001 Z " fill="#f87060"/>
	<path d=" M 839.731 584.835 L 839.731 662.027 C 839.731 670.018 843.727 673.846 851.884 673.846 C 859.874 673.846 863.869 670.018 863.869 662.027 L 863.869 584.835 L 863.869 513.363 L 863.869 502.309 C 863.869 494.319 859.874 490.49 851.717 490.49 C 843.727 490.49 839.731 494.319 839.731 502.309 L 839.731 513.363 L 839.731 584.835 Z " fill="#f87060"/>
	<path d=" M 1681.487 527.81 L 1681.487 661.195 C 1681.487 669.185 1685.482 673.014 1693.639 673.014 C 1701.63 673.014 1705.625 669.185 1705.625 661.195 L 1705.958 660.529 L 1705.958 527.81 L 1705.958 494.78 L 1705.958 494.78 L 1705.958 445.284 C 1705.958 437.293 1701.907 433.464 1693.638 433.464 C 1685.537 433.464 1681.487 437.293 1681.487 445.284 L 1681.487 494.78 L 1681.487 527.81 Z " fill="#f87060"/>
</svg>
