<svg xmlns="http://www.w3.org/2000/svg" xmlns:xlink="http://www.w3.org/1999/xlink" style="isolation:isolate" viewBox="536.642 94.243 1474.714 918.824" width="1474.714pt" height="918.824pt">
	<path d=" M 1468.649 309.062 L 1311.708 218.436 L 1122.488 109.182 C 1114.878 104.722 1106.8 101.167 1098.379 98.547 C 1089.833 95.896 1080.944 94.493 1071.993 94.43 C 1060.454 94.306 1049.007 96.769 1038.528 101.604 C 1027.893 106.625 1018.567 114.048 1011.3 123.28 C 1004.439 132.075 999.355 142.086 996.299 152.815 C 993.367 163.139 991.932 173.836 992.026 184.565 L 992.026 184.565 C 992.026 184.69 992.026 184.783 992.026 184.877 L 992.026 184.347 L 992.026 184.347 L 992.026 184.565 L 992.026 403.01 L 992.026 621.423 C 991.932 632.183 993.367 642.881 996.299 653.204 C 999.355 663.902 1004.439 673.945 1011.3 682.709 C 1018.567 691.972 1027.893 699.394 1038.528 704.385 C 1049.007 709.25 1060.454 711.714 1071.993 711.589 C 1080.944 711.496 1089.833 710.123 1098.379 707.441 C 1106.8 704.852 1114.878 701.266 1122.488 696.837 L 1311.708 587.583 L 1468.649 496.957 L 1468.649 668.112 C 1468.649 679.683 1473.234 690.786 1481.436 698.989 C 1489.608 707.16 1500.742 711.776 1512.313 711.776 C 1523.884 711.776 1534.987 707.16 1543.19 698.989 C 1551.361 690.786 1555.977 679.683 1555.977 668.112 L 1555.977 137.907 C 1555.977 126.336 1551.361 115.202 1543.19 107.03 C 1534.987 98.828 1523.884 94.243 1512.313 94.243 C 1500.742 94.243 1489.608 98.828 1481.436 107.03 C 1473.234 115.202 1468.649 126.336 1468.649 137.907 L 1468.649 309.062 Z  M 1079.354 185.127 L 1268.044 294.068 L 1456.735 403.01 L 1268.044 511.951 L 1079.354 620.893 L 1079.354 403.01 L 1079.354 185.127 L 1079.354 185.127 Z " fill-rule="evenodd" fill="#000000"/>
	<path d=" M 641.185 797.323 L 709.604 797.323 C 717.761 797.323 721.756 793.328 721.756 785.171 C 721.756 777.18 717.761 773.185 709.604 773.185 L 548.794 773.185 C 540.637 773.185 536.642 777.18 536.642 785.171 C 536.642 793.328 540.637 797.323 548.794 797.323 L 617.047 797.323 L 641.185 797.323 Z " fill="#000000"/>
	<path d=" M 874.908 841.77 C 871.912 841.77 869.082 842.936 866.252 845.599 C 863.755 848.096 862.59 850.926 862.59 854.089 L 862.59 942.318 C 862.59 954.637 858.095 965.124 849.272 973.781 C 844.444 978.275 839.45 981.605 834.123 983.769 C 828.796 985.933 822.97 987.098 816.644 987.098 C 804.159 987.098 793.338 982.604 784.182 973.781 C 775.027 964.958 770.532 954.47 770.532 942.318 L 770.532 854.089 C 770.532 852.757 770.365 851.426 770.032 850.094 C 769.7 848.762 769.034 847.597 768.201 846.431 C 768.201 846.265 768.035 845.932 767.868 845.433 C 765.538 842.769 762.541 841.437 758.713 841.437 C 755.383 841.437 752.387 842.769 749.89 845.266 C 747.393 847.597 746.227 850.427 746.227 853.756 L 746.227 943.15 C 746.227 952.639 748.225 961.462 751.721 969.452 C 755.217 977.443 760.377 984.768 767.203 991.426 C 781.019 1004.744 797.5 1011.403 816.81 1011.403 C 836.121 1011.403 852.601 1004.411 866.585 990.927 C 880.235 977.609 887.394 961.462 887.394 941.985 L 887.394 853.756 C 887.394 850.593 886.062 847.93 883.898 845.266 C 881.734 842.769 878.904 841.437 875.075 841.437 L 874.908 841.77 Z " fill="#000000"/>
	<path d=" M 986.609 842.103 C 967.798 842.103 951.651 848.762 938.167 862.246 C 924.516 875.73 917.525 891.711 917.525 910.356 L 917.525 999.583 C 917.525 1003.412 918.69 1006.242 921.02 1008.073 C 922.186 1009.572 923.517 1010.57 924.849 1011.07 C 926.181 1011.569 927.679 1011.736 929.344 1011.736 C 933.006 1011.736 936.003 1010.57 938.333 1008.073 C 940.664 1006.076 941.829 1003.246 941.829 999.583 L 941.829 911.355 C 941.829 898.869 946.157 888.215 954.814 879.559 C 963.637 870.902 974.124 866.574 986.276 866.574 C 998.429 866.574 1008.916 870.902 1017.739 879.559 C 1026.562 888.215 1030.89 898.869 1030.89 911.355 L 1030.89 999.583 C 1030.89 1002.58 1032.056 1005.41 1034.22 1007.907 C 1036.384 1010.404 1039.38 1011.736 1043.209 1011.736 C 1047.038 1011.736 1050.034 1010.57 1052.198 1008.073 C 1053.53 1006.908 1054.363 1005.743 1054.862 1004.411 C 1055.361 1003.079 1055.528 1001.415 1055.528 999.583 L 1055.528 911.355 C 1055.528 892.377 1048.703 876.063 1035.219 862.579 C 1021.568 848.928 1005.254 842.103 986.276 842.103 L 986.609 842.103 Z " fill="#000000"/>
	<path d=" M 1259.62 925.172 L 1259.62 924.839 C 1259.62 913.019 1257.123 902.199 1252.794 892.377 C 1248.466 882.555 1242.307 873.399 1234.15 865.409 C 1217.669 849.261 1197.859 841.437 1174.72 841.437 C 1151.914 841.437 1131.937 849.261 1115.457 865.409 C 1098.81 881.556 1089.654 901.366 1089.654 924.173 L 1089.654 926.67 C 1089.654 949.643 1097.645 969.785 1114.458 986.765 C 1131.272 1003.745 1151.581 1011.736 1174.72 1011.736 C 1188.537 1011.736 1201.688 1008.406 1214.173 1001.914 C 1220.166 998.751 1225.826 994.922 1230.987 990.428 C 1236.147 985.933 1240.642 980.939 1244.471 975.445 C 1245.969 973.281 1246.801 970.951 1246.801 968.454 C 1246.801 967.954 1246.801 967.455 1246.801 967.122 C 1246.801 966.789 1246.635 966.456 1246.468 965.957 C 1245.803 962.461 1243.971 959.797 1240.975 957.966 C 1238.811 956.634 1236.48 955.968 1234.15 955.968 L 1232.319 955.968 C 1228.49 956.801 1225.66 958.465 1223.829 960.962 C 1220.999 965.124 1217.669 968.787 1214.007 971.949 C 1210.345 975.112 1206.349 977.776 1202.188 979.94 L 1202.354 979.94 C 1197.859 982.104 1193.365 983.769 1188.87 984.934 C 1184.375 986.099 1179.548 986.765 1174.387 986.765 C 1158.073 986.765 1144.423 980.939 1132.77 969.785 C 1127.942 964.958 1123.78 960.13 1120.95 954.637 C 1118.12 949.143 1116.123 943.317 1115.124 936.991 L 1247.134 936.991 C 1253.294 936.991 1257.289 933.994 1258.954 928.002 L 1258.787 928.168 C 1259.12 927.336 1259.287 926.67 1259.287 926.17 C 1259.287 925.671 1259.287 925.172 1259.287 924.672 L 1259.62 925.172 Z  M 1232.984 913.186 L 1115.623 913.186 C 1118.453 901.366 1124.446 891.212 1133.602 882.722 L 1133.602 882.888 C 1145.588 872.234 1159.072 866.907 1174.221 866.907 C 1181.878 866.907 1189.203 868.239 1196.195 870.902 C 1203.186 873.566 1209.679 877.228 1215.172 882.389 C 1219.5 886.384 1222.996 891.212 1226.159 896.372 C 1229.322 901.533 1231.653 907.026 1233.151 912.853 L 1232.984 913.186 Z " fill-rule="evenodd" fill="#000000"/>
	<path d=" M 1681.081 999.75 L 1681.081 926.836 C 1681.081 903.697 1672.924 883.721 1656.277 866.907 C 1639.796 850.094 1619.487 841.937 1596.015 841.937 C 1572.543 841.937 1552.566 850.094 1535.919 866.907 C 1519.272 883.721 1511.115 903.697 1511.115 926.836 C 1511.115 949.976 1519.272 969.952 1535.919 986.765 C 1552.566 1003.412 1572.543 1011.736 1596.015 1011.736 C 1604.172 1011.736 1611.829 1010.737 1619.154 1008.573 C 1626.479 1006.409 1633.471 1003.246 1640.129 999.084 C 1642.46 997.586 1645.123 995.755 1648.12 993.424 C 1651.116 991.093 1653.78 988.763 1656.11 986.599 L 1656.11 999.417 C 1656.11 1002.913 1657.276 1005.909 1659.44 1008.406 C 1661.937 1010.57 1664.933 1011.736 1668.596 1011.736 C 1671.925 1011.736 1674.755 1010.57 1677.252 1008.073 C 1679.583 1005.743 1680.748 1002.913 1680.748 999.417 L 1681.081 999.75 Z  M 1596.015 987.098 C 1579.368 987.098 1565.218 981.272 1553.399 969.452 C 1541.413 957.3 1535.753 943.15 1535.753 926.836 C 1535.753 910.689 1541.413 896.206 1553.399 884.054 C 1565.052 872.234 1579.368 866.574 1596.015 866.574 C 1612.828 866.574 1627.145 872.401 1638.798 884.054 C 1650.617 896.206 1656.443 910.522 1656.443 927.003 C 1656.443 943.483 1650.617 957.633 1638.798 969.452 C 1627.145 981.272 1612.828 987.098 1596.015 987.098 Z " fill-rule="evenodd" fill="#000000"/>
	<path d=" M 1839.893 940.32 L 1840.059 940.32 C 1838.395 937.49 1836.23 934.66 1833.567 931.997 C 1830.903 929.333 1827.907 926.67 1824.411 924.173 C 1819.251 920.677 1812.758 918.013 1804.934 916.182 C 1797.11 914.351 1787.954 913.352 1777.633 913.352 C 1770.309 913.352 1763.816 912.686 1758.323 911.521 C 1752.829 910.356 1748.501 908.691 1745.338 906.693 C 1741.01 903.697 1738.18 900.867 1736.848 898.37 L 1736.848 898.703 C 1736.349 897.371 1736.182 894.541 1736.182 890.213 L 1736.182 888.215 C 1736.349 886.384 1737.514 884.054 1739.678 881.224 L 1739.678 881.39 C 1743.673 876.729 1748.834 873.067 1755.326 870.403 C 1761.819 867.74 1769.643 866.408 1778.798 866.408 C 1791.284 866.408 1802.271 870.403 1811.759 878.394 C 1811.926 878.56 1812.092 878.727 1812.259 878.727 C 1814.423 880.225 1817.086 881.224 1820.083 881.057 C 1822.414 881.057 1824.245 880.391 1825.576 879.725 C 1826.908 879.059 1828.073 878.061 1829.239 876.562 C 1830.238 875.397 1830.903 874.232 1831.236 872.9 C 1831.569 871.568 1831.736 870.07 1831.736 868.405 C 1831.569 865.908 1831.07 864.077 1830.238 862.912 C 1829.405 861.747 1828.24 860.581 1826.742 859.416 C 1819.916 854.089 1812.425 849.927 1804.102 846.931 C 1795.778 843.934 1787.122 842.436 1778.133 842.436 C 1764.815 842.436 1753.162 844.6 1743.34 848.762 C 1733.519 852.924 1725.362 859.083 1719.036 867.24 C 1716.539 870.57 1714.541 873.899 1713.043 877.395 C 1711.545 880.891 1710.712 884.22 1710.546 887.383 L 1710.379 891.711 C 1710.047 899.202 1711.378 905.195 1713.542 909.69 C 1715.041 912.686 1717.205 915.683 1720.035 918.679 C 1722.865 921.676 1726.194 924.672 1730.023 927.502 C 1735.017 931.164 1741.343 933.994 1749.167 935.992 C 1756.991 937.99 1766.147 938.989 1776.634 938.989 C 1784.292 938.989 1790.784 939.488 1796.278 940.653 C 1801.771 941.818 1806.266 943.15 1809.262 945.314 C 1813.424 948.144 1816.088 951.141 1817.586 953.638 C 1818.085 954.47 1818.418 955.469 1818.585 956.634 C 1818.751 957.8 1818.751 959.131 1818.751 960.63 C 1818.751 961.129 1818.751 961.795 1818.751 962.627 C 1818.751 963.46 1818.585 964.292 1818.418 965.124 L 1818.418 966.123 C 1818.085 967.954 1816.92 970.285 1814.756 973.115 C 1810.927 977.776 1805.6 981.438 1798.941 984.102 C 1792.283 986.765 1784.458 988.097 1775.469 988.097 C 1770.808 988.097 1766.313 987.598 1762.152 986.432 C 1757.99 985.267 1753.828 983.602 1749.833 981.438 C 1746.004 979.274 1742.675 976.777 1739.845 973.781 C 1737.015 970.784 1734.518 967.621 1732.353 964.125 C 1731.521 962.794 1730.522 961.628 1729.357 960.63 C 1728.192 959.631 1726.86 958.798 1725.362 958.299 L 1725.362 958.465 C 1724.196 957.966 1722.865 957.633 1721.366 957.633 C 1719.369 957.633 1717.371 958.299 1715.374 959.631 L 1715.54 959.464 C 1713.875 960.297 1712.544 961.295 1711.711 962.461 C 1710.879 963.626 1710.213 964.958 1709.714 966.456 C 1709.381 967.288 1709.214 967.954 1709.214 968.454 C 1709.214 968.953 1709.214 969.619 1709.214 970.285 C 1709.214 972.449 1709.88 974.613 1711.212 976.611 L 1711.045 976.611 C 1714.042 982.104 1717.871 987.098 1722.532 991.593 C 1727.193 996.088 1732.353 999.916 1738.013 1003.079 C 1749.5 1009.572 1762.152 1012.568 1775.969 1012.568 C 1789.453 1012.568 1801.105 1010.57 1810.927 1006.409 C 1820.749 1002.247 1828.906 996.088 1835.232 987.931 C 1837.729 984.768 1839.726 981.438 1841.225 977.942 C 1842.723 974.447 1843.555 971.117 1843.888 967.788 C 1844.055 966.789 1844.055 965.624 1844.055 964.458 L 1844.055 961.129 C 1844.055 953.138 1842.723 946.646 1839.893 941.486 L 1839.893 940.32 Z " fill="#000000"/>
	<path d=" M 1941.606 840.106 C 1935.613 840.106 1929.62 840.938 1923.627 842.603 C 1917.634 844.267 1911.974 846.598 1906.647 849.594 C 1905.149 850.427 1903.484 851.592 1901.653 852.924 C 1899.822 854.255 1897.991 855.587 1896.16 857.085 L 1896.16 787.168 C 1896.16 784.005 1895.161 781.175 1892.997 778.678 C 1890.833 776.181 1887.836 775.016 1884.007 775.016 C 1882.343 775.016 1880.678 775.182 1879.18 775.682 C 1877.681 776.181 1876.35 777.014 1875.184 778.345 L 1875.517 778.179 C 1874.019 779.344 1873.02 780.676 1872.521 782.174 C 1872.021 783.672 1871.689 785.337 1871.689 787.168 L 1871.689 999.583 C 1871.689 1001.248 1872.021 1002.913 1872.687 1004.411 C 1873.353 1005.909 1874.186 1007.241 1875.351 1008.24 C 1876.516 1009.572 1877.848 1010.57 1879.346 1011.07 C 1880.844 1011.569 1882.343 1011.736 1883.841 1011.736 C 1887.67 1011.736 1890.666 1010.57 1892.83 1008.073 C 1894.994 1005.743 1895.993 1002.913 1895.993 999.583 L 1895.993 910.356 C 1895.993 897.704 1900.654 887.216 1909.477 878.394 C 1918.3 869.737 1928.788 865.076 1941.439 865.076 C 1953.925 865.076 1964.579 869.571 1973.401 878.394 C 1982.224 887.216 1986.719 897.871 1986.719 910.356 L 1986.719 999.583 C 1986.719 1003.079 1987.884 1005.909 1990.215 1008.24 C 1992.712 1010.737 1995.542 1011.736 1998.871 1011.736 C 2002.367 1011.736 2005.364 1010.737 2007.694 1008.24 C 2010.191 1006.076 2011.357 1003.246 2011.357 999.583 L 2011.357 910.356 C 2011.357 891.045 2004.198 874.898 1990.548 861.247 C 1976.897 847.43 1960.75 840.272 1941.606 840.272 L 1941.606 840.106 Z " fill="#000000"/>
	<path d=" M 1405.771 895.222 L 1396.624 908.691 L 1396.791 908.525 C 1394.626 912.02 1391.131 913.685 1386.469 913.685 C 1384.638 913.685 1382.807 913.352 1381.142 912.52 C 1379.478 911.687 1377.979 910.356 1376.814 908.525 L 1376.814 908.691 L 1367.492 895.207 L 1358.669 882.555 L 1348.681 868.239 L 1339.192 854.588 L 1329.204 840.272 L 1317.884 823.792 L 1317.884 999.916 C 1317.884 1007.907 1313.889 1011.736 1305.898 1011.736 C 1297.741 1011.736 1293.746 1007.907 1293.746 999.916 L 1293.746 785.004 C 1293.746 779.178 1296.409 775.349 1301.903 773.518 C 1302.735 773.018 1304.067 772.685 1306.065 772.685 C 1310.226 772.685 1313.389 774.517 1315.553 778.345 L 1315.553 778.179 L 1334.198 804.814 L 1351.844 829.951 L 1368.824 854.422 L 1386.726 879.949 L 1422.318 828.213 C 1426.847 821.63 1432.309 820.74 1438.892 825.269 C 1445.612 829.892 1446.733 835.311 1442.205 841.894 L 1405.771 895.222 Z " fill="#000000"/>
	<path d=" M 617.089 924.057 L 617.089 1001.248 C 617.089 1009.239 621.084 1013.067 629.241 1013.067 C 637.231 1013.067 641.227 1009.239 641.227 1001.248 L 641.227 924.057 L 641.227 852.584 L 641.227 841.531 C 641.227 833.54 637.231 829.711 629.074 829.711 C 621.084 829.711 617.089 833.54 617.089 841.531 L 617.089 852.584 L 617.089 924.057 Z " fill="#000000"/>
	<path d=" M 1458.844 867.031 L 1458.844 1000.416 C 1458.844 1008.406 1462.839 1012.235 1470.996 1012.235 C 1478.987 1012.235 1482.982 1008.406 1482.982 1000.416 L 1483.315 999.75 L 1483.315 867.031 L 1483.315 834.001 L 1483.315 834.001 L 1483.315 784.505 C 1483.315 776.514 1479.265 772.685 1470.995 772.685 C 1462.894 772.685 1458.844 776.514 1458.844 784.505 L 1458.844 834.001 L 1458.844 867.031 Z " fill="#000000"/>
</svg>
