<svg xmlns="http://www.w3.org/2000/svg" xmlns:xlink="http://www.w3.org/1999/xlink" style="isolation:isolate" viewBox="313.999 341.378 450 424.554" width="450pt" height="424.554pt">
	<path d=" M 641.681 489.066 L 533.784 426.761 L 403.695 351.649 C 398.463 348.583 392.909 346.138 387.12 344.337 C 381.245 342.515 375.134 341.55 368.98 341.507 C 361.046 341.421 353.177 343.115 345.972 346.439 C 338.661 349.891 332.25 354.994 327.253 361.341 C 322.536 367.388 319.041 374.271 316.94 381.647 C 314.924 388.744 313.938 396.099 314.002 403.475 L 314.002 403.475 C 314.002 403.56 314.002 403.625 314.002 403.689 L 314.002 403.325 L 314.002 403.325 L 314.002 403.475 L 314.002 553.655 L 314.002 703.814 C 313.938 711.212 314.924 718.567 316.94 725.664 C 319.041 733.019 322.536 739.923 327.253 745.948 C 332.25 752.317 338.661 757.42 345.972 760.851 C 353.177 764.196 361.046 765.889 368.98 765.804 C 375.134 765.739 381.245 764.796 387.12 762.952 C 392.909 761.172 398.463 758.706 403.695 755.662 L 533.784 680.55 L 641.681 618.244 L 641.681 735.913 C 641.681 743.868 644.833 751.502 650.472 757.141 C 656.09 762.759 663.745 765.932 671.7 765.932 C 679.655 765.932 687.288 762.759 692.927 757.141 C 698.545 751.502 701.719 743.868 701.719 735.913 L 701.719 371.397 C 701.719 363.442 698.545 355.787 692.927 350.17 C 687.288 344.53 679.655 341.378 671.7 341.378 C 663.745 341.378 656.09 344.53 650.472 350.17 C 644.833 355.787 641.681 363.442 641.681 371.397 L 641.681 489.066 Z  M 374.04 403.861 L 503.765 478.758 L 633.49 553.655 L 503.765 628.553 L 374.04 703.45 L 374.04 553.655 L 374.04 403.861 L 374.04 403.861 Z " fill-rule="evenodd" fill="#ffffff"/>
</svg>
